Coordinates
version=1
nRows=23
nColumns=23
inDegrees=yes

Units are S.I. units (second, meters, Newtons, ...)
If the header above contains a line with 'inDegrees', this indicates whether rotational values are in degrees (yes) or radians (no).

endheader
time	pelvis_tilt	pelvis_list	pelvis_rotation	pelvis_tx	pelvis_ty	pelvis_tz	hip_flexion_r	hip_adduction_r	hip_rotation_r	knee_angle_r	knee_angle_r_beta	ankle_angle_r	subtalar_angle_r	mtp_angle_r	hip_flexion_l	hip_adduction_l	hip_rotation_l	knee_angle_l	knee_angle_l_beta	ankle_angle_l	subtalar_angle_l	mtp_angle_l
      0.00000000	     -8.55640852	      9.62789882	      4.48368015	      2.30050410	      0.98390811	      0.99533985	      5.82520229	    -16.57396204	    -10.04209722	     82.33807632	      1.43707053	    -10.83966076	    -18.29163764	      0.00000000	     30.97067762	     11.60456114	     -8.81102202	     26.13036279	      0.45606087	      3.90474074	     -4.98928586	      0.00000000
      0.00666667	     -8.06529362	      9.86169452	      4.74590672	      2.29768877	      0.98068019	      0.99519903	      7.57314383	    -16.85134268	     -9.27651570	     85.22166877	      1.48739871	    -10.24790335	    -18.11031677	      0.00000000	     31.07289774	     11.66356369	     -8.70663791	     29.93678296	      0.52249543	      6.72902730	     -5.07505647	      0.00000000
      0.01333333	     -7.48638391	     10.00168055	      4.96005152	      2.29494887	      0.97747761	      0.99517852	      9.21625068	    -16.95981387	     -8.48049735	     87.94104691	      1.53486082	     -9.65957504	    -17.90077999	      0.00000000	     30.87347677	     11.71614086	     -8.28924314	     33.33973516	      0.58188815	      9.39182108	     -5.29110501	      0.00000000
      0.02000000	     -6.68541579	     10.24728698	      5.06089745	      2.29240513	      0.97479390	      0.99531629	     10.60998089	    -17.07503960	     -7.54437770	     90.41890149	      1.57810754	     -9.15235112	    -17.68277536	      0.00000000	     30.06752590	     11.93826912	     -7.70854918	     36.04412973	      0.62908874	     11.87376722	     -5.67954805	      0.00000000
      0.02666667	     -6.36365099	     10.36157169	      5.04976077	      2.28978188	      0.97158024	      0.99569900	     12.68493570	    -17.02738000	     -6.40817599	     92.83748110	      1.62031971	     -8.44861594	    -17.10272019	      0.00000000	     29.62637770	     11.90052289	     -7.52130282	     38.48325464	      0.67165950	     14.28637766	     -5.35121164	      0.00000000
      0.03333333	     -5.83617696	     10.43207166	      5.02944786	      2.28739055	      0.96920268	      0.99609037	     14.47797747	    -16.83774735	     -5.30675080	     94.89386853	      1.65621045	     -7.75795043	    -16.37415261	      0.00000000	     28.59777617	     11.92071064	     -7.05532173	     40.27705204	      0.70296717	     16.44457658	     -5.31401706	      0.00000000
      0.04000000	     -5.42657104	     10.44066341	      4.96408794	      2.28513783	      0.96723492	      0.99656467	     16.42225202	    -16.51208587	     -4.14994716	     96.66531703	      1.68712805	     -7.03649320	    -15.47157398	      0.00000000	     27.40397004	     11.88939884	     -6.59590921	     41.56418488	      0.72543188	     18.41814231	     -5.20977205	      0.00000000
      0.04666667	     -5.04182063	     10.34749767	      4.88857668	      2.28313478	      0.96587839	      0.99705210	     18.34972478	    -16.01489666	     -3.03848774	     98.08151048	      1.71184529	     -6.39428374	    -14.57689797	      0.00000000	     25.95819193	     11.79026280	     -6.05220755	     42.38140785	      0.73969511	     20.19299277	     -5.20998646	      0.00000000
      0.05333333	     -4.88711552	     10.16882421	      4.73681618	      2.28128832	      0.96480600	      0.99762195	     20.55339856	    -15.37873863	     -1.88578833	     99.21810009	      1.73168252	     -5.67740803	    -13.46165399	      0.00000000	     24.54801869	     11.57573268	     -5.61401066	     42.83124901	      0.74754632	     21.85879241	     -5.06618862	      0.00000000
      0.06000000	     -5.23136145	      9.98788827	      4.50134123	      2.27968479	      0.96362983	      0.99818424	     23.33982359	    -14.72217249	     -0.61674047	    100.12530741	      1.74751628	     -4.86198345	    -12.03598580	      0.00000000	     23.46863321	     11.29088363	     -5.49501669	     42.91367662	      0.74898495	     23.33294758	     -4.46738358	      0.00000000
      0.06666667	     -5.33086469	      9.60895005	      4.29610586	      2.27848795	      0.96356737	      0.99867216	     25.65897814	    -13.81837813	      0.36332962	    100.53318922	      1.75463516	     -4.27469635	    -10.95518727	      0.00000000	     21.90595740	     10.89993780	     -5.04572412	     42.62438945	      0.74393594	     24.57716357	     -4.35473515	      0.00000000
      0.07333333	     -5.56625609	      9.15199153	      4.28013145	      2.27782782	      0.96415739	      0.99886899	     27.88003637	    -12.94061839	      1.00262106	    100.48925679	      1.75386839	     -3.96254953	    -10.28314293	      0.00000000	     20.23953350	     10.55343285	     -4.31401764	     41.90712734	      0.73141735	     25.43334599	     -4.07555960	      0.00000000
      0.08000000	     -6.06949027	      8.78679354	      3.83147752	      2.27709946	      0.96441035	      0.99962666	     30.55376740	    -11.95260539	      2.05042020	    100.36404381	      1.75168302	     -3.09760843	     -8.63261240	      0.00000000	     18.86852860	     10.02133804	     -4.40055215	     41.12400380	      0.71774927	     26.23473978	     -3.74825672	      0.00000000
      0.08666667	     -6.57177984	      8.30472631	      3.61789104	      2.27696019	      0.96550571	      0.99998650	     32.90745895	    -11.01816587	      2.62464012	     99.74292589	      1.74084246	     -2.60641996	     -7.68299079	      0.00000000	     17.29009257	      9.54035531	     -4.04071050	     39.99455759	      0.69803671	     26.69637169	     -3.41478146	      0.00000000
      0.09333333	     -7.17532425	      7.74388632	      3.60698077	      2.27722010	      0.96698896	      1.00007581	     35.10492996	    -10.18648775	      2.82678508	     98.72608383	      1.72309522	     -2.26364669	     -7.23367176	      0.00000000	     15.73950241	      9.05745891	     -3.44148532	     38.72061129	      0.67580216	     27.01972258	     -3.05432420	      0.00000000
      0.10000000	     -7.60732398	      7.15378634	      3.27010016	      2.27770989	      0.96909029	      1.00068796	     37.05099877	     -9.11469565	      3.16421270	     97.43382215	      1.70054100	     -1.64829045	     -6.29810115	      0.00000000	     13.92597905	      8.39237307	     -3.24944074	     37.19847520	      0.64923587	     26.72335877	     -2.77031971	      0.00000000
      0.10666667	     -7.64659216	      6.49733685	      2.95261055	      2.27873609	      0.97222850	      1.00129117	     38.29740404	     -8.05952040	      3.22980359	     95.72791877	      1.67076737	     -0.98450945	     -5.52969458	      0.00000000	     11.56162410	      7.65029491	     -3.03196296	     35.41536191	      0.61811467	     26.17118020	     -2.35276381	      0.00000000
      0.11333333	     -7.86668415	      5.73402659	      2.77445821	      2.28005280	      0.97549558	      1.00176068	     39.51353673	     -7.05933711	      3.00693194	     93.69137559	      1.63522298	     -0.41126365	     -5.14911082	      0.00000000	      9.42252334	      6.79165609	     -2.83451538	     33.63840458	      0.58710092	     25.18010191	     -1.89056309	      0.00000000
      0.12000000	     -7.65933663	      4.88866138	      2.55649280	      2.28182934	      0.97974241	      1.00228519	     40.02303728	     -5.99453590	      2.63607788	     91.27826846	      1.59310632	      0.18892325	     -4.91139263	      0.00000000	      6.74227264	      5.82923308	     -2.66657409	     31.63890676	      0.55220309	     23.87097784	     -1.48899993	      0.00000000
      0.12666667	     -7.61898813	      3.97715295	      2.48857812	      2.28378244	      0.98397199	      1.00264617	     40.53072306	     -5.03622046	      2.02934767	     88.59844649	      1.54633460	      0.81780480	     -4.78793417	      0.00000000	      4.31984407	      4.79492571	     -2.51304666	     29.69912750	      0.51834756	     22.07779751	     -1.05630157	      0.00000000
      0.13333333	     -7.70974021	      3.23228721	      2.30657527	      2.28586656	      0.98808668	      1.00315028	     41.09683859	     -4.19648522	      1.57483513	     85.74643783	      1.49655766	      1.49869132	     -4.63060407	      0.00000000	      2.04726031	      3.93730581	     -2.56780821	     27.68270817	      0.48315440	     19.75938087	     -0.82082139	      0.00000000
      0.14000000	     -7.83011975	      2.50619822	      2.13496648	      2.28798049	      0.99226955	      1.00363631	     41.56099920	     -3.40162679	      1.09575688	     82.66194270	      1.44272307	      2.18138288	     -4.46651552	      0.00000000	     -0.13387476	      3.11638016	     -2.64723209	     25.67224918	      0.44806527	     17.09549276	     -0.69295942	      0.00000000
      0.14666667	     -8.05861958	      1.87357164	      1.95294593	      2.29017693	      0.99629089	      1.00415046	     42.02643660	     -2.72660690	      0.63499181	     79.39028464	      1.38562186	      2.87527112	     -4.27467217	      0.00000000	     -2.11253236	      2.39658382	     -2.83529387	     23.74315179	      0.41439617	     14.09047804	     -0.61691568	      0.00000000
